# xmcd CD database file
#
# Track frame offsets:
#	150
#	14661
#	31477
#	45141
#	59085
#	78437
#	94154
#	107270
#	123847
#	138821
#	155829
#	171664
#	191009
#	206452
#	219215
#	237604
#
# Disc length: 3404 seconds
#
# Revision: 0
# Processed by: cddbd v1.5.2PL0 Copyright (c) Steve Scherf et al.
# Submitted via: CDex 1.70beta1
#
DISCID=dc0d4a10
DTITLE=Harlemania - Various Artists
DYEAR=1900
DGENRE=Jazz
TTITLE0=Accordian Joe
TTITLE1=East St Louis Toodle-Oo
TTITLE2=You Might Get Better
TTITLE3=Harlemania
TTITLE4=Medley: Mood Indigo - Solitude - Dusk
TTITLE5=Sent For You Yesterday, And Here You Come Today
TTITLE6=Jubilee Stomp
TTITLE7=Black Beauty
TTITLE8=Everybody Stomp
TTITLE9=What Can A Poor Fellow Do?
TTITLE10=Piccadilly
TTITLE11=Stompy Jones
TTITLE12=Blue Flame
TTITLE13=Do You Believe In Love At First Sight?
TTITLE14=Black And Tan Fantasy
TTITLE15=Rockin' In Rhythm
EXTD=
EXTT0=
EXTT1=
EXTT2=
EXTT3=
EXTT4=
EXTT5=
EXTT6=
EXTT7=
EXTT8=
EXTT9=
EXTT10=
EXTT11=
EXTT12=
EXTT13=
EXTT14=
EXTT15=
PLAYORDER=
